<svg width="13" height="14" viewBox="0 0 13 14" fill="none" xmlns="http://www.w3.org/2000/svg">
<path d="M12.699 6.778C12.699 8.036 12.444 9.15233 11.934 10.127C11.424 11.0903 10.7157 11.844 9.809 12.388C8.90233 12.932 7.854 13.204 6.664 13.204C5.48533 13.204 4.44267 12.932 3.536 12.388C2.62933 11.844 1.921 11.0903 1.411 10.127C0.912333 9.16367 0.663 8.053 0.663 6.795C0.663 5.52567 0.918 4.40933 1.428 3.446C1.938 2.47133 2.64067 1.712 3.536 1.168C4.44267 0.624 5.491 0.352 6.681 0.352C7.871 0.352 8.91367 0.624 9.809 1.168C10.7157 1.712 11.424 2.46567 11.934 3.429C12.444 4.39233 12.699 5.50867 12.699 6.778ZM10.421 6.778C10.421 5.894 10.268 5.129 9.962 4.483C9.656 3.837 9.22533 3.33833 8.67 2.987C8.11467 2.62433 7.45167 2.443 6.681 2.443C5.92167 2.443 5.25867 2.62433 4.692 2.987C4.13667 3.33833 3.706 3.837 3.4 4.483C3.094 5.129 2.941 5.894 2.941 6.778C2.941 7.662 3.094 8.43267 3.4 9.09C3.706 9.736 4.13667 10.2347 4.692 10.586C5.25867 10.9373 5.92167 11.113 6.681 11.113C7.45167 11.113 8.11467 10.9373 8.67 10.586C9.22533 10.2233 9.656 9.719 9.962 9.073C10.268 8.41567 10.421 7.65067 10.421 6.778ZM11.135 13.935L6.681 8.903L8.058 7.662L12.529 12.694L11.135 13.935Z" fill="#972424"/>
</svg>
