<svg width="90" height="14" viewBox="0 0 90 14" fill="none" xmlns="http://www.w3.org/2000/svg">
<path d="M12.699 6.778C12.699 8.036 12.444 9.15233 11.934 10.127C11.424 11.0903 10.7157 11.844 9.809 12.388C8.90233 12.932 7.854 13.204 6.664 13.204C5.48533 13.204 4.44267 12.932 3.536 12.388C2.62933 11.844 1.921 11.0903 1.411 10.127C0.912333 9.16367 0.663 8.053 0.663 6.795C0.663 5.52567 0.918 4.40933 1.428 3.446C1.938 2.47133 2.64067 1.712 3.536 1.168C4.44267 0.624 5.491 0.352 6.681 0.352C7.871 0.352 8.91367 0.624 9.809 1.168C10.7157 1.712 11.424 2.46567 11.934 3.429C12.444 4.39233 12.699 5.50867 12.699 6.778ZM10.421 6.778C10.421 5.894 10.268 5.129 9.962 4.483C9.656 3.837 9.22533 3.33833 8.67 2.987C8.11467 2.62433 7.45167 2.443 6.681 2.443C5.92167 2.443 5.25867 2.62433 4.692 2.987C4.13667 3.33833 3.706 3.837 3.4 4.483C3.094 5.129 2.941 5.894 2.941 6.778C2.941 7.662 3.094 8.43267 3.4 9.09C3.706 9.736 4.13667 10.2347 4.692 10.586C5.25867 10.9373 5.92167 11.113 6.681 11.113C7.45167 11.113 8.11467 10.9373 8.67 10.586C9.22533 10.2233 9.656 9.719 9.962 9.073C10.268 8.41567 10.421 7.65067 10.421 6.778ZM11.135 13.935L6.681 8.903L8.058 7.662L12.529 12.694L11.135 13.935ZM20.1303 4.602H22.2043V13H20.2833L20.1303 11.878C19.8809 12.2747 19.5069 12.5977 19.0083 12.847C18.5096 13.0963 17.9769 13.221 17.4103 13.221C16.4469 13.221 15.6933 12.915 15.1493 12.303C14.6053 11.691 14.3333 10.875 14.3333 9.855V4.602H16.4073V9.124C16.4073 9.91733 16.5603 10.4897 16.8663 10.841C17.1723 11.1923 17.6143 11.368 18.1923 11.368C18.8496 11.368 19.3369 11.1753 19.6543 10.79C19.9716 10.3933 20.1303 9.79833 20.1303 9.005V4.602ZM24.3464 13V4.602H26.4204V13H24.3464ZM25.3664 2.919C25.0151 2.919 24.7147 2.8 24.4654 2.562C24.2274 2.31267 24.1084 2.01233 24.1084 1.661C24.1084 1.30967 24.2274 1.015 24.4654 0.776999C24.7147 0.539 25.0151 0.42 25.3664 0.42C25.7177 0.42 26.0124 0.539 26.2504 0.776999C26.4997 1.015 26.6244 1.30967 26.6244 1.661C26.6244 2.01233 26.4997 2.31267 26.2504 2.562C26.0124 2.8 25.7177 2.919 25.3664 2.919ZM28.0702 8.784C28.0702 7.92267 28.2459 7.15767 28.5972 6.489C28.9599 5.82033 29.4529 5.299 30.0762 4.925C30.7109 4.53967 31.4419 4.347 32.2692 4.347C33.4139 4.347 34.3489 4.64733 35.0742 5.248C35.8109 5.83733 36.2359 6.63633 36.3492 7.645H34.2752C34.1505 7.169 33.9182 6.812 33.5782 6.574C33.2495 6.32467 32.8359 6.2 32.3372 6.2C31.9065 6.2 31.5212 6.30767 31.1812 6.523C30.8525 6.727 30.5975 7.02167 30.4162 7.407C30.2349 7.79233 30.1442 8.25133 30.1442 8.784C30.1442 9.31667 30.2292 9.77567 30.3992 10.161C30.5692 10.5463 30.8129 10.8467 31.1302 11.062C31.4589 11.266 31.8442 11.368 32.2862 11.368C32.8075 11.368 33.2382 11.2433 33.5782 10.994C33.9295 10.7447 34.1619 10.3877 34.2752 9.923H36.3662C36.2755 10.5803 36.0432 11.1583 35.6692 11.657C35.3065 12.1443 34.8362 12.5297 34.2582 12.813C33.6802 13.085 33.0229 13.221 32.2862 13.221C31.4362 13.221 30.6939 13.0397 30.0592 12.677C29.4245 12.303 28.9315 11.7873 28.5802 11.13C28.2402 10.4613 28.0702 9.67933 28.0702 8.784ZM40.0009 13H37.9439V0.352H40.0009V8.121L43.2649 4.602H45.8659L42.6699 7.934L45.7979 13H43.4179L41.2249 9.464L40.0009 10.739V13Z" fill="black"/>
<path d="M57.1984 13.204C55.9857 13.204 54.9317 12.9433 54.0364 12.422C53.1524 11.8893 52.461 11.147 51.9624 10.195C51.475 9.23167 51.2314 8.09833 51.2314 6.795C51.2314 5.503 51.4807 4.37533 51.9794 3.412C52.4894 2.44867 53.2034 1.70067 54.1214 1.168C55.0394 0.635333 56.099 0.368999 57.3004 0.368999C58.2864 0.368999 59.1704 0.550333 59.9524 0.913C60.7344 1.27567 61.3804 1.78567 61.8904 2.443C62.4004 3.089 62.7234 3.85967 62.8594 4.755H60.5644C60.349 4.02967 59.9467 3.46867 59.3574 3.072C58.7794 2.664 58.071 2.46 57.2324 2.46C56.4844 2.46 55.827 2.63567 55.2604 2.987C54.705 3.33833 54.2744 3.837 53.9684 4.483C53.6624 5.129 53.5094 5.89967 53.5094 6.795C53.5094 7.65633 53.6624 8.41567 53.9684 9.073C54.2744 9.719 54.705 10.2233 55.2604 10.586C55.827 10.9373 56.4844 11.113 57.2324 11.113C58.0824 11.113 58.8077 10.909 59.4084 10.501C60.0204 10.093 60.4284 9.54333 60.6324 8.852H62.8934C62.7347 9.71333 62.389 10.4727 61.8564 11.13C61.335 11.7873 60.672 12.2973 59.8674 12.66C59.074 13.0227 58.1844 13.204 57.1984 13.204ZM66.9528 13H64.8448V0.573H66.9528L70.9648 10.467L74.9768 0.573H77.1188V13H75.0108V9.175C75.0108 8.55167 75.0108 8.03033 75.0108 7.611C75.0108 7.18033 75.0164 6.81767 75.0278 6.523C75.0391 6.22833 75.0504 5.96767 75.0618 5.741C75.0731 5.51433 75.0958 5.28767 75.1298 5.061L71.9678 13H69.9618L66.8168 5.078C66.8734 5.452 66.9074 5.928 66.9188 6.506C66.9414 7.084 66.9528 7.764 66.9528 8.546V13ZM80.9232 13H78.6792L83.1672 0.573H85.3942L89.8822 13H87.5872L86.5842 10.127H81.9432L80.9232 13ZM84.0002 4.279L82.5722 8.291H85.9552L84.5272 4.279C84.4819 4.109 84.4309 3.939 84.3742 3.769C84.3175 3.599 84.2835 3.45167 84.2722 3.327C84.2495 3.44033 84.2099 3.58767 84.1532 3.769C84.1079 3.939 84.0569 4.109 84.0002 4.279Z" fill="#972424"/>
</svg>
