<svg width="697" height="634" viewBox="0 0 697 634" fill="none" xmlns="http://www.w3.org/2000/svg">
<g clip-path="url(#clip0_12_329)">
<path d="M557.89 437.275C557.26 437.304 556.636 437.138 556.103 436.8C555.569 436.463 555.153 435.969 554.909 435.387C554.666 434.804 554.607 434.161 554.742 433.544C554.876 432.927 555.196 432.366 555.66 431.938L555.871 431.099C555.843 431.032 555.815 430.964 555.787 430.897C555.152 429.397 554.088 428.117 552.728 427.219C551.368 426.322 549.774 425.846 548.145 425.852C546.516 425.858 544.925 426.346 543.572 427.253C542.219 428.161 541.165 429.449 540.541 430.954C538.047 436.963 534.872 442.981 534.091 449.334C533.746 452.143 533.892 454.989 534.52 457.748C528.663 444.966 525.622 431.074 525.602 417.013C525.601 413.484 525.797 409.959 526.189 406.452C526.513 403.578 526.963 400.723 527.538 397.89C530.677 382.514 537.417 368.103 547.204 355.84C551.941 353.254 555.772 349.278 558.18 344.447C559.053 342.71 559.669 340.856 560.011 338.943C559.477 339.013 557.996 330.871 558.399 330.372C557.655 329.241 556.322 328.679 555.508 327.576C551.464 322.09 545.891 323.047 542.982 330.503C536.767 333.641 536.707 338.845 540.52 343.851C542.946 347.035 543.28 351.344 545.408 354.753C545.189 355.034 544.962 355.305 544.743 355.586C540.739 360.736 537.25 366.266 534.325 372.097C535.036 365.565 534.188 358.957 531.848 352.816C529.477 347.094 525.033 342.274 521.12 337.327C516.419 331.385 506.779 333.978 505.951 341.511C505.943 341.584 505.935 341.657 505.928 341.73C506.509 342.058 507.078 342.406 507.635 342.775C508.334 343.242 508.876 343.91 509.19 344.691C509.503 345.472 509.573 346.329 509.392 347.151C509.21 347.973 508.784 348.72 508.17 349.295C507.556 349.871 506.783 350.247 505.952 350.376L505.866 350.389C506.074 352.485 506.44 354.562 506.961 356.602C501.941 376.028 512.78 383.103 528.257 383.42C528.598 383.596 528.931 383.771 529.273 383.937C526.334 392.27 524.491 400.949 523.789 409.756C523.392 414.952 523.415 420.172 523.859 425.365L523.833 425.181C522.711 419.407 519.633 414.197 515.117 410.431C508.409 404.918 498.933 402.888 491.697 398.457C490.928 397.963 490.033 397.7 489.12 397.698C488.206 397.695 487.31 397.955 486.539 398.445C485.767 398.935 485.152 399.636 484.766 400.464C484.379 401.293 484.238 402.215 484.358 403.121C484.367 403.186 484.377 403.25 484.387 403.315C485.466 403.754 486.516 404.261 487.532 404.831C488.113 405.159 488.682 405.507 489.239 405.875C489.938 406.343 490.48 407.011 490.794 407.792C491.107 408.573 491.178 409.43 490.996 410.252C490.814 411.074 490.388 411.821 489.774 412.396C489.16 412.972 488.387 413.348 487.556 413.477L487.471 413.49C487.409 413.498 487.357 413.507 487.296 413.516C489.139 417.919 491.726 421.971 494.943 425.496C498.082 442.454 511.565 444.062 525.988 439.124H525.997C527.579 446.004 529.872 452.701 532.838 459.106H557.278C557.366 458.835 557.444 458.554 557.523 458.282C555.261 458.425 552.99 458.289 550.761 457.879C552.574 455.653 554.387 453.41 556.201 451.184C556.241 451.142 556.279 451.098 556.314 451.052C557.234 449.913 558.163 448.782 559.083 447.643L559.083 447.642C559.132 444.149 558.731 440.665 557.891 437.275L557.89 437.275Z" fill="#A78B8B"/>
<path d="M631.085 500.636H440.602C427.627 500.636 415.183 505.793 406.007 514.972C396.832 524.152 391.678 536.601 391.678 549.583V631.159H407.026V586.146C407.026 573.164 412.181 560.714 421.356 551.535C430.531 542.355 442.975 537.198 455.95 537.198H615.736C628.712 537.198 641.156 542.355 650.331 551.535C659.506 560.714 664.66 573.164 664.66 586.146V631.159H680.009V549.583C680.009 536.601 674.854 524.152 665.679 514.972C656.504 505.793 644.06 500.636 631.085 500.636Z" fill="#745858"/>
<path d="M536.939 521.476C564.489 521.476 586.822 518.284 586.822 514.346C586.822 510.409 564.489 507.217 536.939 507.217C509.39 507.217 487.057 510.409 487.057 514.346C487.057 518.284 509.39 521.476 536.939 521.476Z" fill="#D3BABA"/>
<path d="M574.649 516.134H508.208C491.806 500.407 480.079 485.251 489.468 472.671C489.468 469.054 490.904 465.586 493.46 463.029C496.016 460.472 499.482 459.035 503.097 459.035H579.76C583.375 459.035 586.841 460.472 589.397 463.029C591.953 465.586 593.389 469.054 593.389 472.671C596.964 487.006 590.578 501.495 574.649 516.134Z" fill="#35362D"/>
<path d="M354.356 281.196C275.084 236.203 305.415 120.345 218.335 157.254C105.259 130.313 169.533 242.843 69.1581 281.196C64.5614 281.196 60.0096 282.102 55.7628 283.862C51.5159 285.622 47.6571 288.201 44.4067 291.453C41.1563 294.705 38.5779 298.566 36.8188 302.815C35.0597 307.064 34.1543 311.618 34.1543 316.216V316.217C34.1543 320.919 35.101 325.574 36.9378 329.902C38.7746 334.231 41.464 338.145 44.8456 341.411C48.2271 344.677 52.2316 347.229 56.62 348.913C61.0085 350.598 65.691 351.381 70.3885 351.215L83.4884 350.754V461.077H340.026V350.754L353.126 351.215C357.823 351.381 362.506 350.598 366.895 348.913C371.283 347.229 375.287 344.677 378.669 341.411C382.05 338.145 384.74 334.231 386.577 329.902C388.414 325.574 389.36 320.919 389.36 316.217V316.216C389.36 311.618 388.455 307.064 386.696 302.815C384.937 298.566 382.358 294.705 379.108 291.453C375.857 288.201 371.999 285.622 367.752 283.862C363.505 282.102 358.953 281.196 354.356 281.196Z" fill="#6E5959"/>
<path d="M329.883 512.628H90.3423C87.6522 512.628 85.0723 513.697 83.1701 515.6C81.2679 517.504 80.1992 520.085 80.1992 522.776V537.579C80.1992 540.27 81.2679 542.852 83.1701 544.755C85.0723 546.658 87.6522 547.727 90.3423 547.727H108.703V633.28H121.859V547.727H292.884V633.28H306.04V547.727H329.883C332.573 547.727 335.153 546.658 337.055 544.755C338.957 542.851 340.026 540.27 340.026 537.579V522.776C340.026 520.085 338.957 517.504 337.055 515.6C335.153 513.697 332.573 512.628 329.883 512.628Z" fill="#534646"/>
<path d="M379.217 488.498H371.873C373.997 484.832 375.113 480.669 375.108 476.433V336.038C375.108 329.638 372.567 323.5 368.044 318.975C363.521 314.45 357.386 311.907 350.989 311.907C344.592 311.907 338.458 314.45 333.934 318.975C329.411 323.5 326.87 329.638 326.87 336.038V452.077C146.314 426.704 263.98 426.961 101.029 452.884V336.038C101.029 329.638 98.4883 323.5 93.9651 318.975C89.442 314.45 83.3072 311.907 76.9105 311.907C70.5137 311.907 64.379 314.45 59.8558 318.975C55.3327 323.5 52.7916 329.638 52.7916 336.038V476.433C52.7869 480.669 53.9029 484.832 56.0262 488.498H41.0083C38.3182 488.498 35.7383 489.567 33.8361 491.47C31.9339 493.373 30.8652 495.954 30.8652 498.646V513.449C30.8652 516.14 31.9339 518.721 33.8361 520.624C35.7383 522.527 38.3182 523.597 41.0083 523.597H379.217C381.907 523.597 384.487 522.527 386.389 520.624C388.291 518.721 389.36 516.14 389.36 513.449V498.646C389.36 495.954 388.291 493.373 386.389 491.47C384.487 489.567 381.907 488.498 379.217 488.498Z" fill="#796363"/>
<path d="M38.5925 345.114C42.8531 345.503 47.0972 344.213 50.4217 341.519C53.7463 338.825 55.8888 334.939 56.3936 330.689C56.4826 329.823 56.4998 328.952 56.4451 328.083L156.879 278.369L132.481 249.2L38.2434 313.49C34.6617 313.996 31.3481 315.673 28.8197 318.262C26.2913 320.85 24.6904 324.202 24.2668 327.796C23.8196 331.931 25.0326 336.074 27.6388 339.314C30.245 342.555 34.031 344.626 38.1639 345.074C38.3065 345.089 38.4494 345.103 38.5925 345.114Z" fill="#D3BABA"/>
<path d="M259.287 254.895C259.287 254.895 269.04 235.533 238.586 228.508C208.132 221.482 151.906 245.14 149.046 247.842C146.185 250.544 149.901 246.874 140.853 245.466C136.509 244.791 127.836 237.437 126.055 243.625C124.275 249.813 124.767 257.244 119.556 251.229C114.345 245.213 134.879 302.663 134.879 302.663C134.879 302.663 137.529 302.237 146.923 297.255C152.198 294.456 152.254 282.836 155.784 286.087C159.313 289.337 190.696 288.785 192.46 288.357C194.224 287.928 202.131 273.362 202.131 273.362L259.287 254.895Z" fill="#35362D"/>
<path d="M96.0817 615.194L79.3618 611.706L84.8467 545.524L109.525 550.67L96.0817 615.194Z" fill="#D3BABA"/>
<path d="M93.0353 632.768L41.6179 622.046L41.7534 621.395C42.8598 616.085 46.0292 611.432 50.5644 608.46C55.0996 605.487 60.6292 604.439 65.937 605.545L65.9382 605.546L76.8151 600.375L92.8537 611.158L97.3421 612.094L93.0353 632.768Z" fill="#412E2E"/>
<path d="M383.967 538.484L400.609 534.639L393.703 468.59L369.142 474.265L383.967 538.484Z" fill="#D3BABA"/>
<path d="M387.391 555.989L438.566 544.164L438.416 543.517C437.196 538.232 433.927 533.648 429.329 530.774C424.731 527.9 419.181 526.97 413.898 528.191L413.896 528.191L402.911 523.255L387.108 534.381L382.641 535.413L387.391 555.989Z" fill="#412E2E"/>
<path d="M187.638 386.492L184.768 418.977C184.768 418.977 91.5616 389.029 90.4274 459.474C90.0661 481.917 80.1992 568.567 80.1992 568.567L108.703 572.954C108.703 572.954 124.052 549.921 124.052 542.243C124.052 534.565 139.4 478.626 139.4 478.626L219.395 470.755C303.847 465.464 330.159 463.271 348.796 402.945C348.796 402.945 360.159 483.657 366.537 489.917C372.915 496.176 377.637 489.953 369.794 498C361.952 506.047 356.47 502.757 361.952 506.047C367.434 509.338 400.323 503.854 400.323 503.854C407.668 504.678 398.249 387.069 373.633 352.361C351.668 321.389 275.88 418.715 275.88 418.715L187.638 386.492Z" fill="#35362D"/>
<path d="M286.399 248.311C286.399 248.311 314.889 245.075 320.957 258.735C327.026 272.396 342.319 300.839 342.319 300.839C342.319 300.839 334.476 304.182 342.485 295.498C346.074 291.607 339.451 293.98 344.002 292.462C348.553 290.945 350.07 292.462 350.07 292.462L365.241 318.265C365.241 318.265 364.021 324.145 356.139 324.336C348.257 324.527 360.69 316.747 350.07 327.372C344.587 332.858 324.678 340.425 324.678 340.425L273.785 293.632L286.399 248.311Z" fill="#35362D"/>
<path d="M196.557 234.451L225.352 226.986L238.794 208.438L270.715 212.364L277.51 237.663L300.235 250.861C300.235 250.861 287.674 383.776 290.662 391.074C293.65 398.373 286.4 404.478 277.251 413.886C268.102 423.294 284.853 412.797 286.976 423.039C289.099 433.282 304.575 444.122 286.976 444.014C269.377 443.906 172.573 448.795 175.607 436.653C178.641 424.511 169.202 421.187 173.777 413.574C178.352 405.962 181.432 410.216 179.892 398.982C178.352 387.748 179.869 380.159 179.869 374.088C179.869 368.017 184.953 312.847 184.953 312.847L196.557 234.451Z" fill="#21221C"/>
<path d="M300.007 444.242C305.499 454.047 274.566 456.931 241.053 455.61C240.405 453.127 239.333 450.775 237.883 448.659C234.181 443.286 238.656 406.935 233.256 403.262C235.698 409.181 225.822 448.522 223.759 454.578C193.448 452.15 165.822 446.64 166.156 440.083C166.247 438.171 172.573 401.744 175.637 398.981C178.687 396.219 175.607 344.068 175.637 332.881C175.652 321.68 192.295 239.34 192.295 236.304C192.295 233.269 231.739 218.091 231.739 218.091L248.426 313.712L273.792 223.797C276.272 227.171 279.139 230.243 282.333 232.95C287.415 237.184 307.592 254.518 307.592 254.518L290.313 382.437C290.313 382.437 298.49 401.744 298.065 409.409C297.901 415.49 296.705 421.5 294.53 427.182C292.073 434.391 292.331 430.521 300.007 444.242Z" fill="#35362D"/>
<path d="M327.149 179.923C330.31 182.807 332.221 186.812 332.477 191.084C332.732 195.357 331.31 199.561 328.515 202.801C327.936 203.451 327.305 204.051 326.627 204.597L357.704 312.307L319.722 313.966L303.581 201C301.538 198.013 300.54 194.434 300.744 190.821C300.948 187.208 302.341 183.764 304.707 181.026C306.068 179.482 307.72 178.22 309.569 177.314C311.417 176.408 313.426 175.875 315.48 175.746C317.534 175.617 319.594 175.893 321.541 176.561C323.489 177.228 325.286 178.272 326.83 179.634C326.937 179.729 327.044 179.825 327.149 179.923Z" fill="#D3BABA"/>
<path d="M313.741 304.776C314.953 303.81 352.752 291.532 352.752 291.532C352.752 291.532 368.805 315.427 359.104 323.159C349.402 330.891 328.211 332.907 328.211 332.907C328.211 332.907 319.307 327.895 319.517 321.988C319.726 316.081 313.741 304.776 313.741 304.776Z" fill="#35362D"/>
<path d="M290.352 194.061L294.461 163.789C295.031 159.591 297.897 156.834 300.851 157.644L308.196 159.658C311.149 160.468 313.088 164.542 312.519 168.74L308.41 199.013C307.84 203.211 304.973 205.967 302.02 205.157L294.675 203.143C291.722 202.333 289.783 198.259 290.352 194.061Z" fill="#231D1D"/>
<path d="M292.388 192.303L296.576 164.611C297.157 160.771 299.246 158.334 301.234 159.178L306.177 161.278C308.165 162.122 309.31 165.933 308.729 169.773L304.541 197.466C303.961 201.306 301.871 203.743 299.883 202.898L294.94 200.799C292.952 199.954 291.808 196.143 292.388 192.303Z" fill="#21221C"/>
<path d="M214.262 163.54C217.118 186.592 233.084 205.599 256.301 205.599C261.822 205.599 267.288 204.511 272.389 202.397C277.489 200.284 282.124 197.186 286.027 193.28C289.931 189.374 293.028 184.738 295.14 179.635C297.253 174.532 298.34 169.063 298.34 163.54C298.34 140.311 279.419 123.629 256.301 121.481C231.772 119.202 210.596 133.944 214.262 163.54Z" fill="#23241D"/>
<path d="M260.948 208.096C281.537 208.096 298.227 191.398 298.227 170.8C298.227 150.202 281.537 133.504 260.948 133.504C240.36 133.504 223.67 150.202 223.67 170.8C223.67 191.398 240.36 208.096 260.948 208.096Z" fill="#D3BABA"/>
<path d="M222.347 174.863C223.527 182.968 230.431 194.275 228.814 194.275C227.197 194.275 215.701 160.865 227.197 158.687C235.536 157.107 237.4 158.493 245.193 155.112L244.094 156.147C249.252 159.9 256.431 157.587 262.316 155.144C268.218 152.718 275.38 150.404 280.555 154.141C283.804 156.487 285.179 160.563 287.2 164.025C289.221 167.503 292.956 170.787 296.804 169.719C299.893 168.862 301.671 165.4 301.655 162.197C301.639 158.994 297.47 155.947 298.874 153.073C303.034 144.557 299.293 138.753 290.223 134.745C286.925 134.244 283.627 133.732 280.328 133.209C282.057 130.814 284.152 128.706 286.537 126.965C285.308 124.457 283.901 121.934 281.525 120.542C278.889 118.973 275.623 119.087 272.567 119.248C265.744 119.604 258.926 119.96 252.114 120.316C247.069 120.575 241.846 120.882 237.335 123.195C231.708 126.091 228.022 131.737 225.338 137.479C219.323 150.388 220.277 160.774 222.347 174.863Z" fill="#23241D"/>
<path d="M0.142096 634.881C0.141585 635.052 0.174988 635.222 0.240375 635.381C0.305762 635.54 0.401848 635.684 0.523102 635.805C0.644357 635.926 0.788378 636.022 0.9469 636.088C1.10542 636.153 1.27532 636.187 1.4468 636.186H999.411C999.757 636.186 1000.09 636.049 1000.33 635.804C1000.58 635.559 1000.72 635.227 1000.72 634.881C1000.72 634.535 1000.58 634.203 1000.33 633.958C1000.09 633.713 999.757 633.576 999.411 633.576H1.4468C1.27532 633.575 1.10544 633.609 0.946917 633.674C0.788396 633.739 0.644356 633.836 0.523102 633.957C0.401849 634.078 0.305764 634.222 0.240375 634.381C0.174987 634.539 0.141589 634.709 0.142096 634.881Z" fill="#A78B8B"/>
</g>
<g filter="url(#filter0_ii_12_329)">
<circle cx="73.5147" cy="73.5147" r="73.5147" transform="matrix(1 0 0 -1 374.996 147.792)" fill="url(#paint0_linear_12_329)"/>
</g>
<g filter="url(#filter1_ii_12_329)">
<ellipse cx="30.9535" cy="30.9535" rx="30.9535" ry="30.9535" transform="matrix(1 0 0 -1 34.5068 116.838)" fill="url(#paint1_linear_12_329)"/>
</g>
<path d="M467.118 85.5467L458.206 77.4431C457.784 77.0601 457.231 76.8559 456.662 76.8735C456.093 76.8911 455.553 77.1291 455.156 77.5373L449.909 82.9332C448.646 82.692 446.107 81.9005 443.494 79.2936C440.88 76.6779 440.089 74.1323 439.854 72.8782L445.246 67.6292C445.654 67.2327 445.893 66.6926 445.91 66.1234C445.928 65.5542 445.723 65.0005 445.34 64.5794L437.238 55.6689C436.855 55.2465 436.322 54.9903 435.752 54.9547C435.183 54.9191 434.622 55.1069 434.189 55.4782L429.431 59.5585C429.052 59.9389 428.826 60.4453 428.795 60.9814C428.762 61.5296 428.135 74.5138 438.203 84.5864C446.987 93.3675 457.989 94.0099 461.019 94.0099C461.462 94.0099 461.734 93.9968 461.806 93.9924C462.342 93.9624 462.848 93.7351 463.227 93.3543L467.305 88.5943C467.678 88.1625 467.867 87.602 467.832 87.0326C467.797 86.4632 467.541 85.9299 467.118 85.5467Z" fill="#35362D"/>
<path d="M56.3926 80.2084L64.8081 84.7292C65.0909 84.8806 65.4567 84.9525 65.8247 84.9525C66.1927 84.9525 66.5585 84.8806 66.8413 84.7292L75.2568 80.2084C75.8055 79.9133 76.3239 78.7654 75.3174 78.7654H56.3331C55.3266 78.7654 55.845 79.9133 56.3926 80.2084ZM75.5115 82.6803L66.8413 87.1988C66.4598 87.3986 66.1927 87.4221 65.8247 87.4221C65.4567 87.4221 65.1896 87.3986 64.8081 87.1988C64.4266 86.9991 56.8044 83.0034 56.1817 82.6791C55.744 82.4502 55.7485 82.7184 55.7485 82.9249V91.1081C55.7485 91.5794 56.3836 92.2302 56.8706 92.2302H74.8237C75.3106 92.2302 75.9457 91.5794 75.9457 91.1081V82.926C75.9457 82.7195 75.9502 82.4514 75.5115 82.6803Z" fill="#35362D"/>
<defs>
<filter id="filter0_ii_12_329" x="366.996" y="-7.23755" width="163.029" height="163.029" filterUnits="userSpaceOnUse" color-interpolation-filters="sRGB">
<feFlood flood-opacity="0" result="BackgroundImageFix"/>
<feBlend mode="normal" in="SourceGraphic" in2="BackgroundImageFix" result="shape"/>
<feColorMatrix in="SourceAlpha" type="matrix" values="0 0 0 0 0 0 0 0 0 0 0 0 0 0 0 0 0 0 127 0" result="hardAlpha"/>
<feOffset dx="-8" dy="-8"/>
<feGaussianBlur stdDeviation="8"/>
<feComposite in2="hardAlpha" operator="arithmetic" k2="-1" k3="1"/>
<feColorMatrix type="matrix" values="0 0 0 0 0.913725 0 0 0 0 0.917647 0 0 0 0 0.901961 0 0 0 1 0"/>
<feBlend mode="normal" in2="shape" result="effect1_innerShadow_12_329"/>
<feColorMatrix in="SourceAlpha" type="matrix" values="0 0 0 0 0 0 0 0 0 0 0 0 0 0 0 0 0 0 127 0" result="hardAlpha"/>
<feOffset dx="8" dy="8"/>
<feGaussianBlur stdDeviation="8"/>
<feComposite in2="hardAlpha" operator="arithmetic" k2="-1" k3="1"/>
<feColorMatrix type="matrix" values="0 0 0 0 1 0 0 0 0 1 0 0 0 0 1 0 0 0 0.5 0"/>
<feBlend mode="normal" in2="effect1_innerShadow_12_329" result="effect2_innerShadow_12_329"/>
</filter>
<filter id="filter1_ii_12_329" x="26.5068" y="46.9312" width="77.907" height="77.907" filterUnits="userSpaceOnUse" color-interpolation-filters="sRGB">
<feFlood flood-opacity="0" result="BackgroundImageFix"/>
<feBlend mode="normal" in="SourceGraphic" in2="BackgroundImageFix" result="shape"/>
<feColorMatrix in="SourceAlpha" type="matrix" values="0 0 0 0 0 0 0 0 0 0 0 0 0 0 0 0 0 0 127 0" result="hardAlpha"/>
<feOffset dx="-8" dy="-8"/>
<feGaussianBlur stdDeviation="8"/>
<feComposite in2="hardAlpha" operator="arithmetic" k2="-1" k3="1"/>
<feColorMatrix type="matrix" values="0 0 0 0 0.913725 0 0 0 0 0.917647 0 0 0 0 0.901961 0 0 0 1 0"/>
<feBlend mode="normal" in2="shape" result="effect1_innerShadow_12_329"/>
<feColorMatrix in="SourceAlpha" type="matrix" values="0 0 0 0 0 0 0 0 0 0 0 0 0 0 0 0 0 0 127 0" result="hardAlpha"/>
<feOffset dx="8" dy="8"/>
<feGaussianBlur stdDeviation="8"/>
<feComposite in2="hardAlpha" operator="arithmetic" k2="-1" k3="1"/>
<feColorMatrix type="matrix" values="0 0 0 0 1 0 0 0 0 1 0 0 0 0 1 0 0 0 0.5 0"/>
<feBlend mode="normal" in2="effect1_innerShadow_12_329" result="effect2_innerShadow_12_329"/>
</filter>
<linearGradient id="paint0_linear_12_329" x1="147.029" y1="0" x2="0" y2="147.029" gradientUnits="userSpaceOnUse">
<stop stop-color="white"/>
<stop offset="1" stop-color="white" stop-opacity="0.31"/>
</linearGradient>
<linearGradient id="paint1_linear_12_329" x1="61.9071" y1="0" x2="3.8147e-06" y2="61.9071" gradientUnits="userSpaceOnUse">
<stop stop-color="white"/>
<stop offset="1" stop-color="white" stop-opacity="0.31"/>
</linearGradient>
<clipPath id="clip0_12_329">
<rect width="697" height="515" fill="white" transform="translate(0 118.762)"/>
</clipPath>
</defs>
</svg>
